# xmcd CD database file
#
# Track frame offsets:
#	150
#	18307
#	35390
#	52582
#	70442
#	91505
#	117700
#	135902
#	152885
#	171452
#	191255
#	214185
#	238400
#	265915
#
# Disc length: 3732 seconds
#
# Revision: 5
# Processed by: cddbd v1.5.2PL0 Copyright (c) Steve Scherf et al.
# Submitted via: CDex 1.70beta2
#
DISCID=be0e920e
DTITLE=Silence 4 - Only Pain Is Real
DYEAR=2000
DGENRE=Slow Rock
TTITLE0=To Give
TTITLE1=Not Brave Enough
TTITLE2=Empty Happy Song
TTITLE3=Only Pain Is Real
TTITLE4=I'm Not Perfect
TTITLE5=Sleepwalkin Convict
TTITLE6=Cruel II
TTITLE7=Ceilings
TTITLE8=Where Are You?
TTITLE9=Alright
TTITLE10=Search Me Not
TTITLE11=Don't II
TTITLE12=Take Me Away
TTITLE13=Wild Oscar (Part I)
EXTD=YEAR: 2000
EXTT0=
EXTT1=
EXTT2=
EXTT3=
EXTT4=
EXTT5=
EXTT6=
EXTT7=
EXTT8=
EXTT9=
EXTT10=
EXTT11=
EXTT12=
EXTT13=
PLAYORDER=
